<?xml version="1.0" encoding="UTF-8" standalone="no"?>
<!-- Created with Inkscape (http://www.inkscape.org/) -->

<svg
   width="137.31067mm"
   height="112.73682mm"
   viewBox="0 0 137.31067 112.73682"
   version="1.1"
   id="svg5"
   inkscape:version="1.1.2 (0a00cf5339, 2022-02-04)"
   sodipodi:docname="logo.svg"
   xmlns:inkscape="http://www.inkscape.org/namespaces/inkscape"
   xmlns:sodipodi="http://sodipodi.sourceforge.net/DTD/sodipodi-0.dtd"
   xmlns="http://www.w3.org/2000/svg"
   xmlns:svg="http://www.w3.org/2000/svg">
  <sodipodi:namedview
     id="namedview7"
     pagecolor="#ffffff"
     bordercolor="#cccccc"
     borderopacity="1"
     inkscape:pageshadow="0"
     inkscape:pageopacity="1"
     inkscape:pagecheckerboard="0"
     inkscape:document-units="mm"
     showgrid="false"
     fit-margin-top="0"
     fit-margin-left="0"
     fit-margin-right="0"
     fit-margin-bottom="0"
     inkscape:zoom="1.8116734"
     inkscape:cx="269.08824"
     inkscape:cy="227.41406"
     inkscape:window-width="2560"
     inkscape:window-height="1317"
     inkscape:window-x="0"
     inkscape:window-y="0"
     inkscape:window-maximized="1"
     inkscape:current-layer="layer1" />
  <defs
     id="defs2">
    <inkscape:path-effect
       effect="perspective-envelope"
       up_left_point="127.67565,-7.7057437"
       up_right_point="327.24023,20.541016"
       down_left_point="108.86991,124.02555"
       down_right_point="330.18101,75.817452"
       id="path-effect3905"
       is_visible="true"
       lpeversion="1"
       deform_type="perspective"
       horizontal_mirror="false"
       vertical_mirror="false"
       overflow_perspective="false" />
    <rect
       x="121.45831"
       y="14.837722"
       width="994.44446"
       height="379.29193"
       id="rect2668" />
  </defs>
  <g
     inkscape:label="Layer 1"
     inkscape:groupmode="layer"
     id="layer1"
     transform="translate(-34.134118,-94.081363)">
    <path
       id="path846"
       style="fill:#ec4899;stroke:none;stroke-width:0.264583;stroke-linecap:round;stroke-linejoin:round"
       d="m 68.241787,94.21575 c -3.53192,0.07457 -7.18657,2.136079 -10.964703,6.28954 -6.056249,6.68529 -11.626207,17.89086 -16.595887,33.7814 -5.148892,16.46357 -7.236463,30.20545 -6.123657,40.62956 1.117139,10.28049 5.158198,15.59196 11.820983,16.02279 5.507146,0.35611 10.715546,-2.78575 15.65951,-9.19013 a 52.409534,52.409534 0 0 1 -5.288049,-11.44737 c -1.675133,1.4725 -3.337695,2.12201 -4.986774,1.86501 -3.069074,-0.4783 -4.656204,-3.77626 -4.693256,-9.89811 -0.03717,-6.14067 1.483389,-14.37268 4.507735,-24.49928 2.966429,-9.93268 6.020213,-17.1454 9.145696,-21.71392 2.374477,-3.47076 4.617884,-5.16178 6.733955,-5.12836 0.5925,0.009 1.175047,0.15406 1.747697,0.43253 1.298332,0.63134 2.257859,1.81355 2.891296,3.5388 a 52.409534,52.409534 0 0 1 9.217009,-6.48023 C 80.162317,102.28121 77.670529,98.031838 73.691069,95.719017 71.908066,94.682756 70.091844,94.17669 68.241787,94.21575 Z m 13.071555,14.20223 c 0.274552,1.4638 0.495982,3.00279 0.6165,4.68551 0.618723,8.63902 -0.820695,19.49702 -4.396113,32.96129 -3.680822,13.86116 -8.112958,24.79429 -13.400733,32.75252 -0.693116,1.04316 -1.391242,2.02001 -2.094963,2.93161 a 52.409534,52.409534 0 0 0 44.591077,24.93698 52.409534,52.409534 0 0 0 30.83067,-10.07226 c -0.33027,0.10668 -0.66092,0.17235 -0.9927,0.1509 -2.22133,-0.14364 -3.482,-3.09897 -3.72329,-8.89662 -0.23675,-5.84345 0.599,-13.69758 2.47685,-23.36653 1.84238,-9.48628 3.86745,-16.49602 6.05235,-21.0721 1.65851,-3.46208 3.24741,-5.19556 4.76767,-5.26273 0.42567,-0.0188 0.84601,0.0927 1.2609,0.33384 1.8407,1.06979 2.81295,4.24459 2.95951,9.52189 0.14553,5.24046 -0.53565,12.06522 -2.06447,20.62613 -1.55477,8.7062 -3.33628,15.56257 -5.3666,20.55017 -1.0304,2.53127 -2.06727,4.43067 -3.11092,5.69733 a 52.409534,52.409534 0 0 0 7.45329,-7.44089 l 7.67085,-43.58804 2.68976,1.53841 c 0.30581,0.17491 0.57856,0.37002 0.84129,0.57102 a 52.409534,52.409534 0 0 0 -51.74516,-44.10997 52.409534,52.409534 0 0 0 -25.315768,6.55154 z m 77.060928,37.55843 a 52.409534,52.409534 0 0 1 0.66404,8.29976 52.409534,52.409534 0 0 1 -0.75137,8.69146 c -0.12553,2.32922 -0.45324,5.12562 -1.01544,8.477 -0.82676,4.92828 -1.73763,8.65821 -2.73782,11.17916 -1.01218,2.56349 -2.06995,3.7687 -3.17758,3.58118 l -0.99013,-0.16744 0.69764,-4.03903 a 52.409534,52.409534 0 0 1 -3.89124,5.45652 l -1.55029,8.80773 3.09645,0.22944 c 1.63849,0.12142 2.93213,-0.35502 3.90415,-1.41335 0.95978,-1.06388 1.92434,-2.88847 2.8944,-5.45651 0.8345,-2.20289 1.5995,-4.74215 2.29805,-7.61659 0.69474,-2.86586 1.34153,-6.12047 1.942,-9.76426 0.58856,-3.57142 1.00943,-6.78403 1.26556,-9.65471 0.2555,-2.86408 0.34977,-5.44906 0.28267,-7.76542 -0.071,-2.66703 -0.35787,-4.68681 -0.86403,-6.06371 -0.39733,-1.11208 -1.0897,-2.03349 -2.06706,-2.78123 z m -7.31066,36.02209 a 52.409534,52.409534 0 0 0 7.22333,-19.03087 c 0.0562,-1.0431 0.084,-2.02109 0.0532,-2.86391 -0.0999,-2.73683 -0.65379,-4.34851 -1.67638,-4.83227 l -0.91002,-0.42994 z m -11.34453,12.89741 a 52.409534,52.409534 0 0 1 -2.2593,1.71772 c 0.75684,-0.24446 1.50996,-0.80826 2.2593,-1.71772 z m -67.622747,-79.9977 a 52.409534,52.409534 0 0 0 -17.876943,39.37796 52.409534,52.409534 0 0 0 2.530594,16.02537 c 1.370724,-1.20491 2.74974,-2.95036 4.137731,-5.28908 3.000248,-5.05531 5.778325,-12.27159 8.35298,-21.59816 2.530372,-9.16615 3.776697,-16.42027 3.779097,-21.92011 0.0012,-2.72092 -0.306581,-4.91583 -0.923459,-6.59598 z m 19.031397,-7.47448 6.169133,3.52847 -9.655741,57.76908 17.540528,-53.25928 5.23586,2.99465 -8.39484,53.25359 15.0952,-49.42127 4.41937,2.52801 -20.16259,68.1669 -6.932392,-0.51366 9.361702,-58.6357 -18.629355,57.94892 -8.443413,-0.62581 z m 39.1449,21.63434 c 0.54869,0.0152 1.09064,0.17912 1.62626,0.49041 2.36578,1.37497 3.62903,5.06114 3.85247,11.05927 0.22168,5.95081 -0.59859,13.64222 -2.4908,23.26731 -1.92902,9.81385 -4.16927,17.54468 -6.75204,23.17016 -2.67382,5.8238 -5.41304,8.7252 -8.22844,8.54315 -2.92237,-0.18897 -4.6111,-3.60396 -4.97851,-10.28516 -0.36221,-6.74199 0.67872,-15.7688 3.0794,-26.82265 2.34766,-10.80973 4.94626,-18.72497 7.76128,-23.80526 2.12733,-3.82592 4.17077,-5.6715 6.13038,-5.61723 z m -1.26194,11.52798 c -1.065,0.003 -2.21166,1.37648 -3.44269,4.1522 -1.48685,3.35258 -2.95549,8.43253 -4.40076,15.27193 -1.46202,6.91861 -2.22614,12.45572 -2.2748,16.52251 -0.0486,4.0585 0.62372,6.19294 1.99626,6.40684 1.35381,0.21099 2.77045,-1.52945 4.24884,-5.16661 1.4509,-3.56956 2.83189,-8.63344 4.14807,-15.16806 1.3023,-6.4657 1.97434,-11.54793 2.03088,-15.32362 0.0566,-3.78279 -0.5117,-5.96747 -1.72237,-6.55619 -0.19161,-0.0932 -0.38621,-0.13958 -0.58343,-0.139 z m 16.08325,7.75714 c -0.85057,-0.0344 -1.77505,1.22448 -2.77502,3.80442 -1.16193,2.99782 -2.31571,7.49549 -3.4587,13.51701 -1.15393,6.07916 -1.76657,10.92537 -1.82522,14.47095 -0.0585,3.53928 0.44349,5.38976 1.4919,5.55315 1.03664,0.16155 2.1343,-1.38691 3.29179,-4.60282 1.1386,-3.16339 2.23287,-7.64448 3.28662,-13.42502 1.04449,-5.72976 1.59307,-10.22622 1.65572,-13.54853 0.0628,-3.32783 -0.36943,-5.21898 -1.30742,-5.6751 -0.1185,-0.0576 -0.23816,-0.0891 -0.35967,-0.0941 z m 18.15704,0.3328 -1.08986,28.26908 -3.27267,20.30108 2.312,0.17105 3.1502,-19.85718 6.96185,-24.27294 -2.09806,-1.20044 -4.31085,14.92415 0.71675,-16.97984 z" />
  </g>
</svg>
