<?xml version="1.0" encoding="UTF-8" standalone="no"?>
<!-- Created with Inkscape (http://www.inkscape.org/) -->

<svg
   width="412"
   height="815"
   viewBox="0 0 109.00833 215.63541"
   version="1.1"
   id="svg5"
   inkscape:version="1.1.2 (0a00cf5339, 2022-02-04)"
   sodipodi:docname="routes.svg"
   xmlns:inkscape="http://www.inkscape.org/namespaces/inkscape"
   xmlns:sodipodi="http://sodipodi.sourceforge.net/DTD/sodipodi-0.dtd"
   xmlns="http://www.w3.org/2000/svg"
   xmlns:svg="http://www.w3.org/2000/svg">
  <sodipodi:namedview
     id="namedview7"
     pagecolor="#ffffff"
     bordercolor="#cccccc"
     borderopacity="1"
     inkscape:pageshadow="0"
     inkscape:pageopacity="1"
     inkscape:pagecheckerboard="0"
     inkscape:document-units="px"
     showgrid="false"
     units="px"
     width="375px"
     showguides="false"
     inkscape:guide-bbox="true"
     inkscape:zoom="1.8497567"
     inkscape:cx="318.14995"
     inkscape:cy="264.35909"
     inkscape:window-width="2560"
     inkscape:window-height="1317"
     inkscape:window-x="0"
     inkscape:window-y="0"
     inkscape:window-maximized="1"
     inkscape:current-layer="layer1">
    <inkscape:grid
       type="xygrid"
       id="grid846"
       dotted="false" />
    <sodipodi:guide
       position="0,198.70208"
       orientation="0,1"
       id="guide1028"
       inkscape:label=""
       inkscape:locked="false"
       inkscape:color="rgb(0,0,255)" />
    <sodipodi:guide
       position="0,212.98958"
       orientation="0,1"
       id="guide1030"
       inkscape:label=""
       inkscape:locked="false"
       inkscape:color="rgb(0,0,255)" />
    <sodipodi:guide
       position="0,201.34791"
       orientation="0,1"
       id="guide1032"
       inkscape:label=""
       inkscape:locked="false"
       inkscape:color="rgb(0,0,255)" />
    <sodipodi:guide
       position="4.2333332,215.63541"
       orientation="-1,0"
       id="guide1048"
       inkscape:label=""
       inkscape:locked="false"
       inkscape:color="rgb(0,0,255)" />
    <sodipodi:guide
       position="10.583333,215.63541"
       orientation="-1,0"
       id="guide1050"
       inkscape:label=""
       inkscape:locked="false"
       inkscape:color="rgb(0,0,255)" />
    <sodipodi:guide
       position="0,210.34374"
       orientation="0,1"
       id="guide1052"
       inkscape:label=""
       inkscape:locked="false"
       inkscape:color="rgb(0,0,255)" />
    <sodipodi:guide
       position="0,203.99374"
       orientation="0,1"
       id="guide1054"
       inkscape:label=""
       inkscape:locked="false"
       inkscape:color="rgb(0,0,255)" />
    <sodipodi:guide
       position="104.775,215.63541"
       orientation="-1,0"
       id="guide2073"
       inkscape:label=""
       inkscape:locked="false"
       inkscape:color="rgb(0,0,255)" />
    <sodipodi:guide
       position="98.424997,215.63541"
       orientation="-1,0"
       id="guide2075"
       inkscape:label=""
       inkscape:locked="false"
       inkscape:color="rgb(0,0,255)" />
    <sodipodi:guide
       position="93.13333,215.63541"
       orientation="-1,0"
       id="guide2077"
       inkscape:label=""
       inkscape:locked="false"
       inkscape:color="rgb(0,0,255)" />
    <sodipodi:guide
       position="86.783331,215.63541"
       orientation="-1,0"
       id="guide2301"
       inkscape:label=""
       inkscape:locked="false"
       inkscape:color="rgb(0,0,255)" />
    <sodipodi:guide
       position="81.491664,215.63541"
       orientation="-1,0"
       id="guide2554"
       inkscape:label=""
       inkscape:locked="false"
       inkscape:color="rgb(0,0,255)" />
    <sodipodi:guide
       position="75.141664,215.63541"
       orientation="-1,0"
       id="guide2556"
       inkscape:label=""
       inkscape:locked="false"
       inkscape:color="rgb(0,0,255)" />
    <sodipodi:guide
       position="1.5875,215.63541"
       orientation="-1,0"
       id="guide846"
       inkscape:label=""
       inkscape:locked="false"
       inkscape:color="rgb(0,0,255)" />
    <sodipodi:guide
       position="13.229166,215.63541"
       orientation="-1,0"
       id="guide848"
       inkscape:label=""
       inkscape:locked="false"
       inkscape:color="rgb(0,0,255)" />
    <sodipodi:guide
       position="107.42083,215.63541"
       orientation="-1,0"
       id="guide954"
       inkscape:label=""
       inkscape:locked="false"
       inkscape:color="rgb(0,0,255)" />
    <sodipodi:guide
       position="95.779164,215.63541"
       orientation="-1,0"
       id="guide956"
       inkscape:label=""
       inkscape:locked="false"
       inkscape:color="rgb(0,0,255)" />
    <sodipodi:guide
       position="84.137497,215.63541"
       orientation="-1,0"
       id="guide1329"
       inkscape:label=""
       inkscape:locked="false"
       inkscape:color="rgb(0,0,255)" />
    <sodipodi:guide
       position="72.495831,215.63541"
       orientation="-1,0"
       id="guide1331"
       inkscape:label=""
       inkscape:locked="false"
       inkscape:color="rgb(0,0,255)" />
    <sodipodi:guide
       position="0,215.63541"
       orientation="0,412"
       id="guide1541" />
    <sodipodi:guide
       position="109.00833,215.63541"
       orientation="815,0"
       id="guide1543" />
    <sodipodi:guide
       position="109.00833,0"
       orientation="0,-412"
       id="guide1545" />
    <sodipodi:guide
       position="0,0"
       orientation="-815,0"
       id="guide1547" />
    <sodipodi:guide
       position="15.875,215.63541"
       orientation="-1,0"
       id="guide1624"
       inkscape:label=""
       inkscape:locked="false"
       inkscape:color="rgb(0,0,255)" />
    <sodipodi:guide
       position="0,175.41874"
       orientation="0,1"
       id="guide29009"
       inkscape:label=""
       inkscape:locked="false"
       inkscape:color="rgb(0,0,255)" />
    <sodipodi:guide
       position="0,193.41041"
       orientation="0,1"
       id="guide29445"
       inkscape:label=""
       inkscape:locked="false"
       inkscape:color="rgb(0,0,255)" />
    <sodipodi:guide
       position="0,180.71041"
       orientation="0,1"
       id="guide29447"
       inkscape:label=""
       inkscape:locked="false"
       inkscape:color="rgb(0,0,255)" />
    <sodipodi:guide
       position="0,187.06041"
       orientation="0,1"
       id="guide29635"
       inkscape:label=""
       inkscape:locked="false"
       inkscape:color="rgb(0,0,255)" />
    <sodipodi:guide
       position="0,186.00208"
       orientation="0,1"
       id="guide38273"
       inkscape:label=""
       inkscape:locked="false"
       inkscape:color="rgb(0,0,255)" />
    <sodipodi:guide
       position="0,170.12708"
       orientation="0,1"
       id="guide52648"
       inkscape:label=""
       inkscape:locked="false"
       inkscape:color="rgb(0,0,255)" />
    <sodipodi:guide
       position="0,163.77708"
       orientation="0,1"
       id="guide52650"
       inkscape:label=""
       inkscape:locked="false"
       inkscape:color="rgb(0,0,255)" />
    <sodipodi:guide
       position="0,162.71874"
       orientation="0,1"
       id="guide52652"
       inkscape:label=""
       inkscape:locked="false"
       inkscape:color="rgb(0,0,255)" />
    <sodipodi:guide
       position="0,157.42708"
       orientation="0,1"
       id="guide52654"
       inkscape:label=""
       inkscape:locked="false"
       inkscape:color="rgb(0,0,255)" />
    <sodipodi:guide
       position="0,151.07708"
       orientation="0,1"
       id="guide52656"
       inkscape:label=""
       inkscape:locked="false"
       inkscape:color="rgb(0,0,255)" />
  </sodipodi:namedview>
  <defs
     id="defs2">
    <rect
       x="82.679361"
       y="203.12582"
       width="156.46945"
       height="99.984552"
       id="rect49782" />
    <rect
       x="86.10038"
       y="206.87087"
       width="187.89962"
       height="60.410631"
       id="rect40015" />
    <rect
       x="72.973283"
       y="-64.696238"
       width="156.10808"
       height="64.696238"
       id="rect35755" />
    <rect
       x="91.725426"
       y="-77.390295"
       width="164.87939"
       height="141.39028"
       id="rect12254" />
    <rect
       x="86.10038"
       y="206.87086"
       width="187.89961"
       height="60.410629"
       id="rect40015-2" />
    <rect
       x="72.973282"
       y="-64.696236"
       width="156.10808"
       height="64.696236"
       id="rect35755-2" />
    <rect
       x="86.10038"
       y="206.87086"
       width="187.89961"
       height="60.410629"
       id="rect40015-2-4" />
    <rect
       x="82.679359"
       y="203.12582"
       width="156.46945"
       height="99.98455"
       id="rect49782-7" />
  </defs>
  <g
     inkscape:label="Layer 1"
     inkscape:groupmode="layer"
     id="layer1">
    <text
       xml:space="preserve"
       transform="matrix(0.26458333,0,0,0.26458333,-8.9935074,26.233027)"
       id="text12252"
       style="font-style:normal;font-variant:normal;font-weight:normal;font-stretch:normal;font-size:18px;line-height:24px;font-family:sans-serif;-inkscape-font-specification:sans-serif;white-space:pre;shape-inside:url(#rect12254);fill:#111827;fill-opacity:1;stroke:none"><tspan
         x="91.724609"
         y="-60.714843"
         id="tspan965">Routes</tspan></text>
    <text
       xml:space="preserve"
       transform="matrix(0.26458333,0,0,0.26458333,-15.56985,40.620904)"
       id="text35753"
       style="font-style:normal;font-weight:normal;font-size:14px;line-height:1.25;font-family:sans-serif;white-space:pre;shape-inside:url(#rect35755);fill:#111827;fill-opacity:1;stroke:none"><tspan
         x="72.972656"
         y="-52.308594"
         id="tspan967">Mulva</tspan></text>
    <path
       style="fill:none;stroke:#e5e7eb;stroke-width:0.264583px;stroke-linecap:butt;stroke-linejoin:miter;stroke-opacity:1;fill-opacity:1"
       d="M 0,16.933331 H 109.00833"
       id="path37751" />
    <text
       xml:space="preserve"
       transform="matrix(0.26458333,0,0,0.26458333,-18.991089,-24.242966)"
       id="text40013"
       style="font-style:normal;font-weight:normal;font-size:12px;line-height:1.25;font-family:sans-serif;white-space:pre;shape-inside:url(#rect40015-2);display:inline;fill:#6b7280;fill-opacity:1;stroke:none"><tspan
         x="86.099609"
         y="217.48828"
         id="tspan969">December 31, 2024</tspan></text>
    <text
       xml:space="preserve"
       transform="matrix(0.26458333,0,0,0.26458333,78.395992,-27.097442)"
       id="text49780"
       style="font-style:normal;font-weight:normal;font-size:14px;line-height:1.25;font-family:sans-serif;white-space:pre;shape-inside:url(#rect49782);fill:#111827;fill-opacity:1;stroke:none"><tspan
         x="82.679688"
         y="215.51172"
         id="tspan971">6B</tspan></text>
    <text
       xml:space="preserve"
       transform="matrix(0.26458333,0,0,0.26458333,-15.56985,63.904239)"
       id="text35753-7"
       style="font-style:normal;font-weight:normal;font-size:14px;line-height:1.25;font-family:sans-serif;white-space:pre;shape-inside:url(#rect35755-2);fill:#111827;fill-opacity:1;stroke:none"><tspan
         x="72.972656"
         y="-52.308594"
         id="tspan973">Art Vandelay</tspan></text>
    <text
       xml:space="preserve"
       transform="matrix(0.26458333,0,0,0.26458333,-18.991089,-0.9596327)"
       id="text40013-5"
       style="font-style:normal;font-weight:normal;font-size:12px;line-height:1.25;font-family:sans-serif;white-space:pre;shape-inside:url(#rect40015-2-4);display:inline;fill:#6b7280;fill-opacity:1;stroke:none"><tspan
         x="86.099609"
         y="217.48828"
         id="tspan975">Mai 31, 2024</tspan></text>
    <text
       xml:space="preserve"
       transform="matrix(0.26458333,0,0,0.26458333,75.429765,-3.8141072)"
       id="text49780-4"
       style="font-style:normal;font-weight:normal;font-size:14px;line-height:1.25;font-family:sans-serif;white-space:pre;shape-inside:url(#rect49782-7);fill:#111827;fill-opacity:1;stroke:none"><tspan
         x="82.679688"
         y="215.51172"
         id="tspan977">6A+</tspan></text>
    <path
       style="fill:none;stroke:#f3f4f6;stroke-width:0.264583px;stroke-linecap:butt;stroke-linejoin:miter;stroke-opacity:1"
       d="M 4.2333333,40.216671 H 104.775"
       id="path55862" />
    <path
       fill-rule="evenodd"
       d="m 5.0270833,7.0776083 a 0.19843749,0.19843749 0 0 1 0.198437,-0.198438 h 4.365625 a 0.1984375,0.1984375 0 0 1 0,0.396875 h -4.365625 a 0.19843749,0.19843749 0 0 1 -0.198437,-0.198437 z m 0,1.389062 a 0.19843749,0.19843749 0 0 1 0.198437,-0.198437 h 4.365625 a 0.1984375,0.1984375 0 0 1 0,0.396875 h -4.365625 a 0.19843749,0.19843749 0 0 1 -0.198437,-0.198438 z m 0,1.389063 a 0.19843749,0.19843749 0 0 1 0.198437,-0.198438 h 4.365625 a 0.1984375,0.1984375 0 0 1 0,0.3968747 H 5.2255203 A 0.19843749,0.19843749 0 0 1 5.0270833,9.8557333 Z"
       clip-rule="evenodd"
       id="path56256"
       style="fill:#9ca3af;stroke-width:0.264583" />
    <path
       fill-rule="evenodd"
       d="m 77.917318,6.281243 a 1.7859375,1.7859375 0 1 0 0,3.571875 1.7859375,1.7859375 0 0 0 0,-3.571875 z m -2.182813,1.785938 a 2.1828124,2.1828124 0 1 1 3.860271,1.397 l 1.240896,1.240895 a 0.19843749,0.19843749 0 1 1 -0.280459,0.280459 L 79.314318,9.744639 A 2.1828124,2.1828124 0 0 1 75.734505,8.067181 Z"
       clip-rule="evenodd"
       id="path56727"
       style="stroke-width:0.264583;fill:#9ca3af" />
    <path
       fill-rule="evenodd"
       d="m 89.958332,6.2838579 a 0.19843749,0.19843749 0 0 1 0.198438,0.1984375 v 1.7859374 h 1.785937 a 0.1984375,0.1984375 0 0 1 0,0.396875 H 90.15677 v 1.7859372 a 0.1984375,0.1984375 0 0 1 -0.396875,0 V 8.6651078 h -1.785938 a 0.1984375,0.1984375 0 0 1 0,-0.396875 h 1.785938 V 6.4822954 a 0.19843749,0.19843749 0 0 1 0.198437,-0.1984375 z"
       clip-rule="evenodd"
       id="path56943"
       style="stroke-width:0.264583;fill:#9ca3af" />
    <path
       d="m 103.38593,8.6651078 h 0.39688 a 0.1984375,0.1984375 0 0 0 0,-0.396875 h -0.39688 a 0.1984375,0.1984375 0 0 0 0,0.396875 z M 101.6,6.8791704 a 0.19843749,0.19843749 0 0 1 0.19843,-0.1984375 h 1.98438 a 0.19843749,0.19843749 0 0 1 0,0.3968749 h -1.98438 A 0.19843749,0.19843749 0 0 1 101.6,6.8791704 Z m 0,3.1749996 a 0.19843749,0.19843749 0 0 1 0.19843,-0.1984372 h 1.98438 a 0.19843749,0.19843749 0 0 1 0,0.3968752 h -1.98438 A 0.19843749,0.19843749 0 0 1 101.6,10.05417 Z M 99.417183,7.0776078 h 0.396875 a 0.19843749,0.19843749 0 1 0 0,-0.3968749 h -0.396875 a 0.19843749,0.19843749 0 0 0 0,0.3968749 z m 0.396875,3.1750002 h -0.396875 a 0.19843749,0.19843749 0 0 1 0,-0.3968752 h 0.396875 a 0.19843749,0.19843749 0 0 1 0,0.3968752 z M 99.218746,8.4666703 a 0.19843749,0.19843749 0 0 1 0.198437,-0.1984375 h 1.984377 a 0.1984375,0.1984375 0 0 1 0,0.396875 H 99.417183 A 0.19843749,0.19843749 0 0 1 99.218746,8.4666703 Z m 1.587504,-2.1828124 a 0.59531248,0.59531248 0 1 0 0,1.1906249 0.59531248,0.59531248 0 0 0 0,-1.1906249 z m 0.99218,2.1828124 a 0.595315,0.595315 0 1 1 1.19063,0 0.595315,0.595315 0 0 1 -1.19063,0 z m -0.99218,0.9921875 a 0.59531248,0.59531248 0 1 0 0,1.1906252 0.59531248,0.59531248 0 0 0 0,-1.1906252 z"
       id="path57256"
       style="stroke-width:0.264583;fill:#9ca3af" />
  </g>
  <g
     inkscape:groupmode="layer"
     id="layer2"
     inkscape:label="Layer 2"
     style="display:none">
    <rect
       style="opacity:0.5;fill:none;stroke:#000000;stroke-width:0.264583;stroke-linecap:round;stroke-linejoin:round;stroke-miterlimit:4;stroke-dasharray:none"
       id="rect1245"
       width="11.641666"
       height="11.64167"
       x="1.5875"
       y="2.6458299" />
    <rect
       style="opacity:0.5;fill:none;stroke:#090000;stroke-width:0.264583;stroke-linecap:round;stroke-linejoin:round;stroke-miterlimit:4;stroke-dasharray:none;stroke-opacity:1"
       id="rect1247"
       width="11.641666"
       height="11.64167"
       x="95.779167"
       y="2.6458299" />
    <rect
       style="opacity:0.5;fill:none;stroke:#000000;stroke-width:0.264583;stroke-linecap:round;stroke-linejoin:round;stroke-miterlimit:4;stroke-dasharray:none"
       id="rect1355"
       width="11.641667"
       height="11.64167"
       x="84.137497"
       y="2.6458299" />
    <rect
       style="opacity:0.5;fill:none;stroke:#000000;stroke-width:0.264583;stroke-linecap:round;stroke-linejoin:round;stroke-miterlimit:4;stroke-dasharray:none"
       id="rect1357"
       width="11.641666"
       height="11.64167"
       x="72.495834"
       y="2.6458299" />
    <rect
       style="opacity:0.5;fill:none;stroke:#000000;stroke-width:0.264583;stroke-linecap:round;stroke-linejoin:round;stroke-miterlimit:4;stroke-dasharray:none;stroke-opacity:1"
       id="rect1571"
       width="109.00833"
       height="16.933331"
       x="0"
       y="3.6407766e-08" />
    <rect
       style="fill:none;stroke:#000003;stroke-width:0.264583;stroke-linecap:round;stroke-linejoin:round;stroke-miterlimit:4;stroke-dasharray:none;stroke-opacity:1"
       id="rect29033"
       width="105.83333"
       height="23.28334"
       x="1.5875"
       y="23.283331" />
  </g>
</svg>
